<svg viewBox="0 0 50 50" xmlns="http://www.w3.org/2000/svg">
<path d="M0.724976 16.575V9.0875C0.724976 8.53522 1.17269 8.0875 1.72498 8.0875H30.25C30.8023 8.0875 31.25 7.63978 31.25 7.0875V2.60933C31.25 1.72631 32.3109 1.27666 32.9454 1.89073L43.307 11.9181C43.7085 12.3066 43.7137 12.9487 43.3187 13.3438L32.9571 23.7054C32.3271 24.3354 31.25 23.8892 31.25 22.9983V18.575C31.25 18.0227 30.8023 17.575 30.25 17.575H1.72498C1.17269 17.575 0.724976 17.1273 0.724976 16.575Z" />
<path d="M44.0375 31.3625L44.0375 38.85C44.0375 39.4023 43.5898 39.85 43.0375 39.85L14.5125 39.85C13.9602 39.85 13.5125 40.2977 13.5125 40.85L13.5125 45.3282C13.5125 46.2112 12.4516 46.6608 11.8171 46.0468L1.45545 36.0194C1.05397 35.6309 1.04871 34.9888 1.44377 34.5937L11.8054 24.2321C12.4353 23.6021 13.5125 24.0483 13.5125 24.9392L13.5125 29.3625C13.5125 29.9148 13.9602 30.3625 14.5125 30.3625L43.0375 30.3625C43.5898 30.3625 44.0375 30.8102 44.0375 31.3625Z" />
</svg>
