<svg width="59" height="60" viewBox="0 0 59 60" fill="none" xmlns="http://www.w3.org/2000/svg">
<g filter="url(#filter0_d_2_25)">
<path d="M7.72498 18.575V11.0875C7.72498 10.5352 8.17269 10.0875 8.72498 10.0875H37.25C37.8023 10.0875 38.25 9.63978 38.25 9.0875V4.60933C38.25 3.72631 39.3109 3.27666 39.9454 3.89073L50.307 13.9181C50.7085 14.3066 50.7137 14.9487 50.3187 15.3438L39.9571 25.7054C39.3271 26.3354 38.25 25.8892 38.25 24.9983V20.575C38.25 20.0227 37.8023 19.575 37.25 19.575H8.72498C8.17269 19.575 7.72498 19.1273 7.72498 18.575Z" fill="#B2BECD"/>
<path d="M51.0375 33.3625L51.0375 40.85C51.0375 41.4023 50.5898 41.85 50.0375 41.85L21.5125 41.85C20.9602 41.85 20.5125 42.2977 20.5125 42.85L20.5125 47.3282C20.5125 48.2112 19.4516 48.6608 18.8171 48.0468L8.45545 38.0194C8.05397 37.6309 8.04871 36.9888 8.44377 36.5937L18.8054 26.2321C19.4353 25.6021 20.5125 26.0483 20.5125 26.9392L20.5125 31.3625C20.5125 31.9148 20.9602 32.3625 21.5125 32.3625L50.0375 32.3625C50.5898 32.3625 51.0375 32.8102 51.0375 33.3625Z" fill="#B2BECD"/>
</g>
<defs>
<filter id="filter0_d_2_25" x="0.724976" y="0.607338" width="57.3125" height="58.7228" filterUnits="userSpaceOnUse" color-interpolation-filters="sRGB">
<feFlood flood-opacity="0" result="BackgroundImageFix"/>
<feColorMatrix in="SourceAlpha" type="matrix" values="0 0 0 0 0 0 0 0 0 0 0 0 0 0 0 0 0 0 127 0" result="hardAlpha"/>
<feOffset dy="4"/>
<feGaussianBlur stdDeviation="3.5"/>
<feComposite in2="hardAlpha" operator="out"/>
<feColorMatrix type="matrix" values="0 0 0 0 0 0 0 0 0 0 0 0 0 0 0 0 0 0 0.38 0"/>
<feBlend mode="normal" in2="BackgroundImageFix" result="effect1_dropShadow_2_25"/>
<feBlend mode="normal" in="SourceGraphic" in2="effect1_dropShadow_2_25" result="shape"/>
</filter>
</defs>
</svg>
